<?xml version="1.0" encoding="iso-8859-1"?>
<!-- Generator: Adobe Illustrator 18.1.0, SVG Export Plug-In . SVG Version: 6.00 Build 0)  -->
<svg version="1.1" xmlns="http://www.w3.org/2000/svg" xmlns:xlink="http://www.w3.org/1999/xlink" x="0px" y="0px" width="840px" height="800px"
	 viewBox="0 0 623.62 566.93" style="enable-background:new 0 0 0 0; overflow-x: auto; overflow-y: auto;" xml:space="preserve">
<g id="Layer_1">
	
		<image style="overflow:visible;" width="5206" height="3754" xlink:href="level 4WT.jpg"  transform="matrix(0.1511 0 0 0.1511 -70.2767 -0.2017)">
	</image>
</g>
<g id="Layer_2">
	<path style="opacity:0.30;fill:#006600;" d="M539.047,183.302l-62.906,7.015c0,0,4.227,13.933,17.623,25.971
		c11.023,9.906,28.253,18.53,54.445,17.052L539.047,183.302z" onClick="window.location='<%= exhibit_page_path('tehukaatai') %>';"/>
	<path style="opacity:0.30;fill:#006600;" d="M422.395,273.089L560.423,326.4c0,0,11.604-3.741,15.879-3.741s0-57.052,0-57.052
		l-22.597-8.885l-5.497-23.382c0,0-32.547,2.372-54.445-17.052l-29.227,42.772l-26.262-8.418c0,0-21.241-2.662-12.826,12.107
		C425.449,262.75,426.06,267.478,422.395,273.089z" onClick="window.location='<%= exhibit_page_path('manawhenua') %>';"/>
	<polygon style="opacity:0.30;fill:#006600;" points="347.274,178.158 435.221,47.218 459.04,57.974 422.395,112.688 
		476.14,132.324 458.429,159.92 453.543,160.388 424.838,208.404 	" onClick="window.location='<%= exhibit_page_path('temarae') %>';"/>
	<path style="opacity:0.30;fill:#006600;" d="M325.458,213.699l21.816-35.541l77.564,30.246l28.705-48.016l4.886-0.468l4.886,32.267
		l-19.544,38.814c0,0-7.329,8.418-21.376,8.885s-14.658,7.95-14.658,7.95L325.458,213.699z" onClick="window.location='<%= exhibit_page_path('manawhenua') %>';"/>
	<path style="opacity:0.30;fill:#006600;" d="M290.475,263.217l34.983-49.519l82.279,34.138c0,0-3.664,2.338-3.664,8.418
		s5.497,8.201-7.329,15.09l-75.732-23.507l-15.269,21.512L290.475,263.217z" onClick="window.location='<%= exhibit_page_path('whititera') %>';"/>
	<path style="opacity:0.30;fill:#006600;" d="M258.106,314.242l32.369-51.024l15.269,6.131l8.216-11.576l21.71,10.173
		c0,0-17.101,25.72-15.269,48.635L258.106,314.242z" onClick="window.location='<%= exhibit_page_path('espresso') %>';"/>
	<path style="opacity:0.30;fill:#006600;" d="M402.851,338.559c0,0-4.886-39.75,19.544-65.47L560.423,326.4
		c0,0,43.363-11.691,54.356,15.432c0,0-15.268,25.72-56.799,0L402.851,338.559z" onClick="window.location='<%= exhibit_page_path('treatyofwaitangi') %>';"/>
	<rect x="397.965" y="369.244" style="opacity:0.30;fill:#006600;" width="105.658" height="14.747" onClick="window.location='<%= exhibit_page_path('themixingroom') %>';"/>
	<polygon style="opacity:0.30;fill:#006600;" points="402.851,338.559 397.965,369.244 503.624,369.244 503.624,340.395 	" onClick="window.location='<%= exhibit_page_path('passports') %>';"/>
	<path style="opacity:0.30;fill:#006600;" d="M589.127,425.073h-59.242c0,0,0-17.77,7.94-18.939s3.054-9.119,3.054-9.119h48.249
		V425.073z" onClick="window.location='<%= exhibit_page_path('planetpasifika') %>';"/>
	<rect x="442.549" y="425.073" style="opacity:0.30;fill:#006600;" width="47.638" height="28.058" onClick="window.location='<%= exhibit_page_path('goldendays') %>';"/>
	<polygon style="opacity:0.30;fill:#006600;" points="212.728,439.102 206.193,455.002 304.217,455.002 304.217,439.102 	" onClick="window.location='<%= exhibit_page_path('inspirationstation') %>';"/>
	<path style="opacity:0.30;fill:#006600;" d="M223.293,428.346H385.14V356.33c0,0-5.497-18.661-25.651-15.644l-78.175-0.33
		L223.293,428.346z" onClick="window.location='<%= exhibit_page_path('sliceofheaven') %>';"/>
	<polygon style="opacity:0.30;fill:#006600;" points="503.624,387.194 422.395,387.194 422.395,421.32 527.953,421.32 
		537.825,406.133 541.618,404.257 540.879,397.014 589.127,397.014 589.127,353.264 571.935,349.048 557.98,341.833 
		503.624,340.686 	" onClick="window.location='<%= exhibit_page_path('tangataolemoana') %>';"/>
</g>
<g id="Layer_3">
	<text transform="matrix(1 0 0 1 244.6668 308.3335)" style="font-family:'MyriadPro-Bold'; font-size:15;">Espresso</text>
	<text transform="matrix(1 0 0 1 372.3332 170.6667)" style="font-family:'MyriadPro-Bold'; font-size:15;">Te Marae</text>
	<text transform="matrix(1 0 0 1 325.458 195.7372)"><tspan x="0" y="0" style="font-family:'MyriadPro-Bold'; font-size:15;">Mana</tspan><tspan x="0" y="18" style="font-family:'MyriadPro-Bold'; font-size:15;">Whenua</tspan></text>
	<text transform="matrix(1 0 0 1 411.7071 360.6667)" style="font-family:'MyriadPro-Bold'; font-size:15;">Passports</text>
	<text transform="matrix(1 0 0 1 389.6665 384.3509)" style="font-family:'MyriadPro-Bold'; font-size:15;">The Mixing Room</text>
	<text transform="matrix(1 0 0 1 442.5493 466.9354)"><tspan x="0" y="0" style="font-family:'MyriadPro-Bold'; font-size:15;">Golden</tspan><tspan x="0" y="18" style="font-family:'MyriadPro-Bold'; font-size:15;">Days</tspan></text>
	<text transform="matrix(1 0 0 1 431.6667 400.6663)"><tspan x="0" y="0" style="font-family:'MyriadPro-Bold'; font-size:15;">Tangata</tspan><tspan x="0" y="18" style="font-family:'MyriadPro-Bold'; font-size:15;">o le Moana</tspan></text>
	<text transform="matrix(1 0 0 1 407.7372 326.4005)" style="font-family:'MyriadPro-Bold'; font-size:15;">Treaty of Waitangi</text>
	<text transform="matrix(1 0 0 1 529.8857 403)"><tspan x="0" y="0" style="font-family:'MyriadPro-Bold'; font-size:15;">PlaNet</tspan><tspan x="0" y="18" style="font-family:'MyriadPro-Bold'; font-size:15;">Pasifika</tspan></text>
	<text transform="matrix(1 0 0 1 516.1155 287.1761)"><tspan x="0" y="0" style="font-family:'MyriadPro-Bold'; font-size:15;">Mana</tspan><tspan x="0" y="18" style="font-family:'MyriadPro-Bold'; font-size:15;">Whenua</tspan></text>
	<text transform="matrix(1 0 0 1 193.5 471)" style="font-family:'MyriadPro-Bold'; font-size:15;">Inspiration Station</text>
	<text transform="matrix(1 0 0 1 266 400.6663)" style="font-family:'MyriadPro-Bold'; font-size:15;">Slice of Heaven</text>
	<text transform="matrix(1 0 0 1 503.9427 203.8782)" style="font-family:'MyriadPro-Bold'; font-size:15;">Te Huka &#x101; Tai</text>
	<text transform="matrix(1 0 0 1 152.8574 183.3024)"><tspan x="0" y="0" style="font-family:'MyriadPro-Bold'; font-size:15;">Whiti Te R&#x101;! The story of</tspan><tspan x="13.912" y="18" style="font-family:'MyriadPro-Bold'; font-size:15;">Ng&#x101;ti Toa Rangatira</tspan></text>
</g>
<g id="Layer_4">
	<text transform="matrix(1 0 0 1 485.5 142)"><tspan x="0" y="0" style="font-family:'MyriadPro-Regular'; font-size:11;">Hine-titama</tspan><tspan x="0" y="13.2" style="font-family:'MyriadPro-Regular'; font-size:11;">Meeting Room</tspan></text>
	<text transform="matrix(1 0 0 1 65.5 352.0093)"><tspan x="0" y="0" style="font-family:'MyriadPro-Regular'; font-size:11;">Amokura Gallery</tspan><tspan x="0" y="13.2" style="font-family:'MyriadPro-Regular'; font-size:11;">Function Venue</tspan></text>
</g>
</svg>
