<?xml version="1.0" encoding="iso-8859-1"?>
<!-- Generator: Adobe Illustrator 18.1.0, SVG Export Plug-In . SVG Version: 6.00 Build 0)  -->
<svg version="1.1" xmlns="http://www.w3.org/2000/svg" xmlns:xlink="http://www.w3.org/1999/xlink" x="0px" y="0px" width="1000px" height="720px"
	 viewBox="122 -57.07 840 680" style="enable-background:new 0 0 0 0; overflow-x: auto; overflow-y: auto;" xml:space="preserve">
<g id="Layer_2_1_">
	
		<image style="overflow:visible;" width="5206" height="3753" xlink:href="level2WT.jpg"  transform="matrix(0.1861 0 0 0.1861 48.3123 -66.9454)">
	</image>
</g>
<g id="Layer_1">
	<g id="Layer_2">
		<polygon style="opacity:0.3;fill:#006600;enable-background:new    ;" points="748.143,121.888 728.495,154.811 828.247,195.751 
			820.186,152.7 		" onClick="window.location='<%= exhibit_page_path('naturespace') %>';" />
		<polygon style="opacity:0.3;fill:#006600;enable-background:new    ;" points="687.436,336.723 687.436,423.67 842.857,423.67 
			842.857,265.393 828.247,195.751 784.921,178.025 725.473,280.588 704.313,336.301 		" onClick="window.location='<%= exhibit_page_path('gallipoli') %>';"/>
		<polygon style="opacity:0.3;fill:#006600;enable-background:new    ;" points="687.436,336.723 601.54,336.723 601.54,395.814 
			651.415,395.814 651.919,364.159 687.436,364.581 		" onClick="window.location='<%= exhibit_page_path('level2store') %>';"/>
		<path style="opacity:0.3;fill:#006600;enable-background:new    ;" d="M659.505,235.236l-55.446-4.875L707.84,58.578
			l61.463,25.747l-60.456,103.408C708.849,187.732,659.505,199.097,659.505,235.236z" onClick="window.location='<%= exhibit_page_path('mountainstosea') %>';"/>
		<path style="opacity:0.3;fill:#006600;enable-background:new    ;" d="M725.473,280.588l59.448-102.563l-56.424-23.214
			l-19.648,32.921c0,0-49.819,11.862-49.343,47.505C659.981,270.881,692.223,284.808,725.473,280.588z" onClick="window.location='<%= exhibit_page_path('awesomeforces') %>';"/>
		<path style="opacity:0.3;fill:#006600;enable-background:new    ;" d="M167.174,312.319l61.746,2.747
			c0,0,27.766-62.17,103.222-38.256c0,0-27.371-47.828,42.906-48.553l5.179-17.392l31.81,12.319l55.482-42.031
			c0,0,105.786-20.29,132.418-132.615l-30.33-14.493l8.138-18.841l31.07,14.493L615.47,3.61l-8.877-5.797
			c0,0,13.315-50.728-39.207-28.987l-26.632-5.416c0,0-47.345,24.982-62.88,22.084L332.141,67.38c0,0-33.289,60.872-130.937,75.365
			c0,0-76.936,61.597-68.059,108.701L167.174,312.319z" onClick="window.location='<%= exhibit_page_path('bushcity') %>';"/>
	</g>
</g>
<g id="Layer_3">
	<text transform="matrix(1 0 0 1 646.7983 135.86)"><tspan x="0" y="0" style="font-family:'MyriadPro-Bold'; font-size:17;">Mountains</tspan><tspan x="17.332" y="20.4" style="font-family:'MyriadPro-Bold'; font-size:17;">to Sea</tspan></text>
	<text transform="matrix(1 0 0 1 748.6553 154.8105)" style="font-family:'MyriadPro-Bold'; font-size:17;">Nature Space</text>
	<text transform="matrix(1 0 0 1 693.6964 385.2682)"><tspan x="0" y="0" style="font-family:'MyriadPro-Bold'; font-size:17;">Gallipoli: The Scale</tspan><tspan x="30.668" y="20.4" style="font-family:'MyriadPro-Bold'; font-size:17;">of Our War</tspan></text>
	<text transform="matrix(1 0 0 1 415.5728 58.5777)" style="font-family:'MyriadPro-Bold'; font-size:17;">Bush City</text>
	<text transform="matrix(1 0 0 1 302.4614 195.7508)" style="font-family:'MyriadPro-Bold'; font-size:17;">Cave</text>
	<text transform="matrix(1 0 0 1 151.6377 178.86)" style="font-family:'MyriadPro-Bold'; font-size:17;">Fossil Dig</text>
	<text transform="matrix(1 0 0 1 671.0933 235.2362)"><tspan x="0" y="0" style="font-family:'MyriadPro-Bold'; font-size:17;">Awesome</tspan><tspan x="12.283" y="20.4" style="font-family:'MyriadPro-Bold'; font-size:17;">Forces</tspan></text>
	<text transform="matrix(1 0 0 1 605.4414 385.2682)" style="font-family:'MyriadPro-Bold'; font-size:17;">Shop</text>
</g>
<g id="Layer_4">
	<text transform="matrix(1 0 0 1 498.8774 315.0664)" style="opacity:0.3; font-family:'MyriadPro-Regular'; font-size:17;">Information Desk</text>
	<text transform="matrix(1 0 0 1 504.541 485.86)" style="opacity:0.3; font-family:'MyriadPro-Regular'; font-size:17;">Storyplace</text>
	<text transform="matrix(1 0 0 1 547.8818 421.86)"><tspan x="0" y="0" style="opacity:0.3; font-family:'MyriadPro-Regular'; font-size:17;">Surroundings</tspan><tspan x="20.97" y="20.4" style="opacity:0.3; font-family:'MyriadPro-Regular'; font-size:17;">Theatre</tspan></text>
	<text transform="matrix(1 0 0 1 287.3735 495.86)"><tspan x="0" y="0" style="opacity:0.3; font-family:'MyriadPro-Regular'; font-size:17;">Blue Whale</tspan><tspan x="-16.371" y="20.4" style="opacity:0.3; font-family:'MyriadPro-Regular'; font-size:17;">Function Venue</tspan></text>
	<text transform="matrix(1 0 0 1 302.5894 366.2682)"><tspan x="0" y="0" style="opacity:0.3; font-family:'MyriadPro-Regular'; font-size:17;">ICON</tspan><tspan x="-37.587" y="20.4" style="opacity:0.3; font-family:'MyriadPro-Regular'; font-size:17;">Function Venue</tspan></text>
</g>
</svg>
