<?xml version="1.0" encoding="iso-8859-1"?>
<!-- Generator: Adobe Illustrator 18.1.0, SVG Export Plug-In . SVG Version: 6.00 Build 0)  -->
<svg version="1.1" xmlns="http://www.w3.org/2000/svg" xmlns:xlink="http://www.w3.org/1999/xlink" x="0px" y="0px" width="880px" height="800px"
	 viewBox="0 0 623.62 566.93" style="enable-background:new 0 0 0 0; overflow-x: auto; overflow-y: auto;" xml:space="preserve">
<g id="Layer_1">
	
		<image style="overflow:visible;" width="5206" height="3754" xlink:href="level 5WT.jpg"  transform="matrix(0.1477 0 0 0.151 -62.5046 0)">
	</image>
	<g id="Layer_2">
		<path style="opacity:0.30;fill:#006600;enable-background:new    ;" d="M402.984,269.028h-75.098v-26.237h58.955
			c0,0-3.51,1.419,1.403-17.728l-49.832-26.592l6.316-13.118l62.464,34.747l-4.211,14.891v34.036H402.984z" onClick="window.location='<%= exhibit_page_path('ngatoi') %>';"/>
		<rect x="292.092" y="398.087" style="opacity:0.30;fill:#006600;enable-background:new    ;" width="75.449" height="32.62" onClick="window.location='<%= exhibit_page_path('level6store') %>';"/>
		<polygon style="opacity:0.30;fill:#006600;enable-background:new    ;" points="184.709,398.087 292.092,398.087 292.092,430.706 
			367.541,430.706 367.541,398.087 586.167,398.087 586.167,508 130.666,508 		" onClick="window.location='<%= exhibit_page_path('ngatoi') %>';"/>
	</g>
</g>
<g id="Layer_2_1_">
	<text transform="matrix(1 0 0 1 177.0355 85.9998)"><tspan x="0" y="0" style="font-family:'MyriadPro-Bold'; font-size:17;">Ng&#x101; Toi | Arts Te Papa</tspan><tspan x="50.03" y="20.4" style="font-family:'MyriadPro-Bold'; font-size:17;">(Level 6)</tspan></text>
	<text transform="matrix(1 0 0 1 399.7021 443.3333)"><tspan x="0" y="0" style="font-family:'MyriadPro-Bold'; font-size:17;">Ng&#x101; Toi | Arts Te Papa</tspan><tspan x="50.03" y="20.4" style="font-family:'MyriadPro-Bold'; font-size:17;">(Level 5)</tspan></text>
	<text transform="matrix(1 0 0 1 320.5892 411.3337)"><tspan x="0" y="0" style="font-family:'MyriadPro-Bold'; font-size:12;">Te Papa</tspan><tspan x="6.726" y="14.4" style="font-family:'MyriadPro-Bold'; font-size:12;">Store</tspan></text>
</g>
<g id="Layer_3">
	<text transform="matrix(1 0 0 1 212.9554 199.333)"><tspan x="0" y="0" style="font-family:'MyriadPro-Regular'; font-size:17;">Viewing Terrace</tspan><tspan x="27.098" y="20.4" style="font-family:'MyriadPro-Regular'; font-size:17;">(Level 6)</tspan></text>
</g>
</svg>
