<?xml version="1.0" encoding="iso-8859-1"?>
<!-- Generator: Adobe Illustrator 18.1.0, SVG Export Plug-In . SVG Version: 6.00 Build 0)  -->
<svg version="1.1" xmlns="http://www.w3.org/2000/svg" xmlns:xlink="http://www.w3.org/1999/xlink" x="0px" y="0px"
		    width="800px" height="800px" viewBox="0 0 595.28 538.58"
		    style="enable-background:new 0 0 0 0; overflow-x: auto; overflow-y: auto;" xml:space="preserve">
<g id="Layer_1">
	<g id="Layer_2_1_">
		
			<image style="overflow:visible;enable-background:new    ;" width="5206" height="3754" xlink:href="level1WT.jpg"  transform="matrix(0.1413 0 0 0.1449 -75.2913 -0.8884)">
		</image>
	</g>
	<g id="Layer_1_1_">
		<g id="Layer_2">
			<path style="opacity:0.3;fill:#006600;enable-background:new    ;" d="M86.46,342.789c0,0,5.164,27.807,20.331,40.141c15.167,12.333,20.5,17,45.833,18.167
		c25.333,1.167,45.333-21.667,45.333-21.667s12.552-17.615,17.193-36.641H86.46z" onClick="window.location='<%= exhibit_page_path('level1store') %>';"/>
			<polygon style="opacity:0.3;fill:#006600;enable-background:new    ;" points="66.394,305.924 85.386,340.932 216.063,340.932 
				247.103,305.924 			" onClick="window.location='<%= exhibit_page_path('level1cafe') %>';"/>
			<polygon style="opacity:0.3;fill:#006600;enable-background:new    ;" points="171.276,481.46 159.158,503.428 165.181,506.192 
				156.748,522.066 163.977,524.405 184.953,488.901 			" onClick="window.location='<%= exhibit_page_path('quakebraker') %>';"/>
			<path style="opacity:0.3;fill:#006600;enable-background:new    ;" d="M33.158,276.019l44.008,1.772
				c0,0,19.772-40.039,73.488-24.661c0,0-19.488-30.827,30.543-31.252l3.685-11.197l22.677,7.937l39.543-27.071
				c0,0,75.331-13.039,94.323-85.465l-21.614-9.354l5.811-12.118l22.11,9.354l4.748-16.795l-6.307-3.756
				c0,0,9.496-32.669-27.921-18.709l-18.992-3.472c0,0-33.732,16.087-44.787,14.244l-103.748,52.724c0,0-23.74,39.189-93.26,48.543
				c0,0-54.78,39.685-48.473,70.016L33.158,276.019z" onClick="window.location='<%= exhibit_page_path('bushcity') %>';"/>
		</g>
	</g>
	<g id="Layer_3">
		<rect x="80.142" y="517.673" style="fill:none;" width="181.418" height="34.016"/>
		<text transform="matrix(1 0 0 1 80.14 526.1977)" style="font-family:'MyriadPro-Bold'; font-size:12.0473;">Quakebraker</text>
		<text transform="matrix(1 0 0 1 102.6771 356.4232)" style="font-family:'MyriadPro-Bold'; font-size:12.0473;">Te Papa Store, Level 1</text>
		<text transform="matrix(1 0 0 1 86.0238 319.9272)" style="font-family:'MyriadPro-Bold'; font-size:12.0473;">Te Papa Cafe</text>
		<text transform="matrix(1 0 0 1 202.2445 117.6038)" style="font-family:'MyriadPro-Bold'; font-size:12.0473;">Bush City</text>
		<text transform="matrix(1 0 0 1 131.0238 203.7064)" style="font-family:'MyriadPro-Bold'; font-size:12.0473;">Cave</text>
		<text transform="matrix(1 0 0 1 40.6692 203.7064)" style="font-family:'MyriadPro-Bold'; font-size:12.0473;">Fossil Dig</text>
	</g>
	<g id="Layer_4">
		
			<text transform="matrix(1 0 0 1 282.3236 355.7148)" style="opacity:0.3;enable-background:new    ; font-family:'MyriadPro-Regular'; font-size:8.504;">Main Stairs</text>
		
			<text transform="matrix(1 0 0 1 283.0317 502.7622)" style="opacity:0.3;enable-background:new    ; font-family:'MyriadPro-Regular'; font-size:8.504;">Car Park Entrance</text>
		
			<text transform="matrix(1 0 0 1 393.9378 340.8324)" style="opacity:0.3;enable-background:new    ; font-family:'MyriadPro-Regular'; font-size:8.504;">Car Park</text>
		
			<text transform="matrix(0.904 0.4275 -0.4275 0.904 323.8202 93.5826)" style="font-family:'MyriadPro-Regular'; font-size:8.5038;">Bridge to Level 2</text>
	</g>
</g>
</svg>
